<?xml version="1.0" standalone="no"?>
<!DOCTYPE svg PUBLIC "-//W3C//DTD SVG 20010904//EN"
 "http://www.w3.org/TR/2001/REC-SVG-20010904/DTD/svg10.dtd">
<svg version="1.0" xmlns="http://www.w3.org/2000/svg"
 width="450.000000pt" height="450.000000pt" viewBox="0 0 450.000000 450.000000"
 preserveAspectRatio="xMidYMid meet">

<g transform="translate(0.000000,450.000000) scale(0.100000,-0.100000)"
fill="#000000" stroke="none">
<path d="M1474 2961 c-126 -6 -133 -7 -209 -45 -129 -64 -197 -146 -231 -277
-29 -111 3 -226 88 -315 72 -76 125 -106 274 -157 218 -75 264 -109 264 -194
0 -61 -29 -106 -88 -135 -39 -19 -62 -23 -132 -22 -96 1 -172 26 -268 90 -30
20 -55 34 -56 32 -2 -2 -33 -54 -71 -117 -54 -90 -65 -115 -54 -122 178 -118
297 -159 460 -159 204 0 357 87 439 251 94 185 45 383 -124 504 -69 49 -101
63 -240 111 -173 59 -226 102 -226 184 0 52 25 99 73 134 28 20 41 21 405 23
l377 3 245 -356 c135 -195 250 -363 255 -372 12 -21 145 -214 155 -225 4 -4
25 18 46 50 22 32 89 130 149 218 156 230 225 325 236 325 5 0 9 -163 9 -410
l0 -410 135 0 135 0 0 695 0 695 -105 0 c-58 0 -108 1 -112 3 -3 1 -77 -101
-164 -228 -157 -229 -322 -465 -325 -465 -1 0 -14 19 -30 42 -16 24 -64 92
-106 153 -43 60 -91 130 -108 155 -239 348 -229 335 -268 342 -43 8 -638 7
-828 -1z"/>
<path d="M2110 1937 l0 -367 135 0 135 0 0 173 0 172 -107 155 c-142 208 -153
224 -159 229 -2 2 -4 -161 -4 -362z"/>
</g>
</svg>
